<svg width="9" height="15" fill="none" xmlns="http://www.w3.org/2000/svg"><g clip-path="url(#clip0_3_66)" fill="#818B9D"><path d="M1.854.821l6.439 6.29a.547.547 0 010 .786.578.578 0 01-.805 0l-6.439-6.29a.547.547 0 010-.786.578.578 0 01.805 0z"/><path d="M1.049 13.394l6.439-6.29a.578.578 0 01.928.18.547.547 0 01-.123.607l-6.44 6.29a.578.578 0 01-.927-.182.547.547 0 01.123-.605z"/></g><defs><clipPath id="clip0_3_66"><path fill="#fff" transform="rotate(-180 4.341 7.328)" d="M0 0h8.026v14.312H0z"/></clipPath></defs></svg>