<svg width="9" height="15" fill="none" xmlns="http://www.w3.org/2000/svg"><g clip-path="url(#clip0_560_1101)" fill="#818B9D"><path d="M7.498 14.178L1.058 7.89a.547.547 0 010-.787.578.578 0 01.806 0l6.438 6.29a.546.546 0 010 .785.578.578 0 01-.804 0z"/><path d="M8.303 1.606l-6.44 6.29a.578.578 0 01-.927-.18.547.547 0 01.123-.607L7.498.819a.578.578 0 01.927.182.547.547 0 01-.122.605z"/></g><defs><clipPath id="clip0_560_1101"><path fill="#fff" transform="translate(.67 .344)" d="M0 0h8.026v14.312H0z"/></clipPath></defs></svg>