<svg width="23" height="23" viewBox="0 0 16 19" fill="none" xmlns="http://www.w3.org/2000/svg"><g clip-path="url(#clip0_393_221)"><path d="M8.004 5.427c-2.272 0-4.104 1.817-4.104 4.07 0 2.252 1.832 4.069 4.104 4.069 2.271 0 4.103-1.817 4.103-4.07 0-2.252-1.832-4.069-4.103-4.069zm0 6.715c-1.468 0-2.668-1.186-2.668-2.646 0-1.459 1.196-2.645 2.668-2.645 1.471 0 2.667 1.186 2.667 2.645 0 1.46-1.2 2.646-2.667 2.646zm5.228-6.881a.95.95 0 01-.957.949.951.951 0 01-.957-.95c0-.524.428-.949.957-.949.529 0 .957.425.957.95zm2.718.963c-.06-1.272-.354-2.398-1.293-3.326-.936-.928-2.071-1.218-3.353-1.282-1.322-.074-5.283-.074-6.604 0-1.279.06-2.414.35-3.354 1.279C.407 3.823.118 4.949.054 6.22c-.075 1.31-.075 5.239 0 6.549.06 1.271.353 2.398 1.292 3.326.94.928 2.072 1.218 3.354 1.282 1.321.074 5.282.074 6.604 0 1.282-.06 2.417-.351 3.353-1.282.936-.928 1.229-2.055 1.293-3.326.075-1.31.075-5.235 0-6.545zm-1.707 7.951a2.69 2.69 0 01-1.522 1.509c-1.053.414-3.553.319-4.717.319-1.165 0-3.668.092-4.718-.32a2.69 2.69 0 01-1.522-1.508c-.418-1.045-.321-3.524-.321-4.679 0-1.154-.093-3.637.321-4.678a2.69 2.69 0 011.522-1.509c1.053-.414 3.553-.319 4.718-.319 1.164 0 3.667-.092 4.717.32.7.275 1.24.81 1.522 1.508.418 1.045.321 3.524.321 4.678 0 1.155.097 3.638-.321 4.679z" fill="#fff" fill-opacity=".75"/></g><defs><clipPath id="clip0_393_221"><path fill="#fff" transform="translate(0 .433)" d="M0 0h16v18.133H0z"/></clipPath></defs></svg>