<svg width="23" height="23" viewBox="0 0 16 19" fill="none" xmlns="http://www.w3.org/2000/svg"><path d="M14.355 6.672c.01.142.01.284.01.426 0 4.335-3.299 9.33-9.33 9.33A9.267 9.267 0 010 14.956c.264.03.518.04.792.04a6.567 6.567 0 004.071-1.4 3.285 3.285 0 01-3.066-2.274c.203.03.406.05.62.05.294 0 .588-.04.862-.111A3.28 3.28 0 01.65 8.042v-.04a3.3 3.3 0 001.483.416A3.277 3.277 0 01.67 5.688c0-.61.162-1.168.447-1.656a9.321 9.321 0 006.761 3.432 3.702 3.702 0 01-.081-.751 3.278 3.278 0 013.28-3.28 3.27 3.27 0 012.395 1.036 6.456 6.456 0 002.081-.792 3.27 3.27 0 01-1.441 1.807c.66-.07 1.3-.254 1.888-.508a7.048 7.048 0 01-1.645 1.696z" fill="#fff" fill-opacity=".75"/></svg>