<svg width="25" height="25" viewBox="0 0 20 23" fill="none" xmlns="http://www.w3.org/2000/svg"><path d="M18.567 6.746c.13-.43 0-.746-.628-.746h-2.077c-.53 0-.773.272-.903.574 0 0-1.059 2.513-2.554 4.142-.483.471-.705.622-.97.622-.13 0-.332-.15-.332-.58V6.746c0-.516-.148-.746-.585-.746H7.252c-.332 0-.53.24-.53.464 0 .488.749.602.826 1.977v2.983c0 .654-.12.774-.384.774-.706 0-2.42-2.523-3.436-5.41C3.524 6.226 3.323 6 2.79 6H.712C.12 6 0 6.272 0 6.574c0 .536.705 3.2 3.284 6.72C5.002 15.697 7.42 17 9.622 17c1.323 0 1.485-.289 1.485-.787 0-2.296-.12-2.513.543-2.513.307 0 .836.151 2.07 1.31 1.412 1.375 1.644 1.99 2.434 1.99h2.078c.593 0 .892-.289.72-.86-.396-1.2-3.066-3.667-3.186-3.832-.306-.385-.218-.557 0-.9.004-.004 2.54-3.483 2.801-4.662z" fill="#fff" fill-opacity=".75"/></svg>