<svg width="122" height="30" fill="none" xmlns="http://www.w3.org/2000/svg"><g opacity=".5" fill="#fff"><path fill-rule="evenodd" clip-rule="evenodd" d="M10 0H0v10a5 5 0 005 5h10V5a5 5 0 00-5-5zm0 2H2v8a3 3 0 003 3h8V5a3 3 0 00-3-3z"/><path d="M27.134 1.947h2.567l1.258 3.859 1.258-3.859h2.584l-2.057 5.61 1.224 3.213 3.026-8.84h3.043L35.328 14h-2.414l-1.955-4.726L29.021 14H26.59L21.898 1.93h3.026l3.043 8.84 1.19-3.213-2.023-5.61zm18.774 12.155c-.907 0-1.729-.17-2.465-.51a6.237 6.237 0 01-1.887-1.394 6.557 6.557 0 01-1.207-1.972 6.295 6.295 0 01-.425-2.278c0-.805.147-1.57.442-2.295a6.489 6.489 0 011.258-1.938 5.857 5.857 0 014.335-1.853c.895 0 1.706.176 2.43.527.737.34 1.366.805 1.888 1.394.532.59.94 1.252 1.224 1.989a6.07 6.07 0 01.425 2.227 6.05 6.05 0 01-.442 2.295 6.278 6.278 0 01-1.258 1.955 6.286 6.286 0 01-1.921 1.36c-.725.329-1.524.493-2.397.493zm-3.145-6.12c0 .465.068.918.204 1.36.136.43.334.816.595 1.156.272.34.606.612 1.003.816.397.204.85.306 1.36.306.533 0 .997-.102 1.394-.306a2.98 2.98 0 00.986-.85c.26-.351.453-.742.578-1.173a4.543 4.543 0 000-2.686 3.537 3.537 0 00-.612-1.156 2.8 2.8 0 00-1.003-.816 3.034 3.034 0 00-1.343-.289c-.533 0-.997.102-1.394.306a3.026 3.026 0 00-.986.833c-.26.34-.46.731-.595 1.173a4.73 4.73 0 00-.187 1.326zm16.06 6.12c-.906 0-1.727-.17-2.464-.51a6.235 6.235 0 01-1.887-1.394 6.553 6.553 0 01-1.207-1.972 6.293 6.293 0 01-.425-2.278c0-.805.147-1.57.442-2.295a6.487 6.487 0 011.258-1.938 5.857 5.857 0 014.335-1.853c.895 0 1.706.176 2.43.527.737.34 1.367.805 1.888 1.394.532.59.94 1.252 1.224 1.989.283.725.425 1.468.425 2.227a6.04 6.04 0 01-.442 2.295 6.28 6.28 0 01-1.258 1.955 6.287 6.287 0 01-1.921 1.36c-.725.329-1.524.493-2.397.493zm-3.144-6.12c0 .465.068.918.204 1.36.136.43.334.816.595 1.156a2.931 2.931 0 002.363 1.122c.532 0 .997-.102 1.394-.306a2.98 2.98 0 00.986-.85 3.66 3.66 0 00.578-1.173 4.543 4.543 0 000-2.686 3.537 3.537 0 00-.612-1.156 2.8 2.8 0 00-1.003-.816 3.035 3.035 0 00-1.343-.289c-.533 0-.998.102-1.394.306a3.025 3.025 0 00-.986.833c-.26.34-.46.731-.595 1.173a4.73 4.73 0 00-.187 1.326zM66.453 14V1.93h4.505c1.326 0 2.43.272 3.315.816a5.131 5.131 0 012.023 2.176c.453.907.68 1.915.68 3.026 0 1.224-.25 2.29-.748 3.196a5.243 5.243 0 01-2.108 2.108c-.895.499-1.95.748-3.162.748h-4.505zm7.684-6.052c0-.703-.125-1.32-.374-1.853a2.819 2.819 0 00-1.088-1.258c-.476-.306-1.049-.459-1.717-.459H69.24v7.174h1.717c.68 0 1.252-.153 1.717-.459a3.037 3.037 0 001.088-1.292c.25-.555.374-1.173.374-1.853zm13.483-3.57h-3.672V14H81.16V4.378h-3.69V1.93h10.15v2.448zm9.844 7.174V14h-8.483V1.93h8.33v2.448H91.77v2.346h4.76v2.261h-4.76v2.567h5.695zm.798-3.689c0-.737.136-1.456.408-2.159a6.132 6.132 0 011.19-1.938 5.712 5.712 0 011.904-1.377c.748-.351 1.598-.527 2.55-.527 1.133 0 2.113.244 2.941.731.838.487 1.462 1.122 1.87 1.904l-2.142 1.496c-.182-.43-.425-.765-.731-1.003a2.535 2.535 0 00-.986-.493 3.66 3.66 0 00-1.02-.153c-.533 0-.998.108-1.394.323a2.801 2.801 0 00-.986.833 3.638 3.638 0 00-.578 1.173 4.61 4.61 0 00-.187 1.292c0 .476.073.935.221 1.377.147.442.357.833.629 1.173.283.34.623.612 1.02.816a2.95 2.95 0 001.309.289c.34 0 .685-.057 1.037-.17a3 3 0 00.969-.527 2.35 2.35 0 00.697-.969l2.278 1.343a3.594 3.594 0 01-1.173 1.513 6.147 6.147 0 01-1.853.969 6.677 6.677 0 01-2.023.323 5.532 5.532 0 01-2.414-.527 6.33 6.33 0 01-1.887-1.428c-.522-.6-.93-1.27-1.224-2.006a6.385 6.385 0 01-.425-2.278zM121.05 1.93V14h-2.788V9.053h-4.811V14h-2.788V1.93h2.788v4.675h4.811V1.93h2.788z"/><path d="M25.708 20.48h.708l3.54 8.52h-.888l-1.104-2.664h-3.828L23.044 29h-.9l3.564-8.52zm2.064 5.196l-1.716-4.212-1.74 4.212h3.456zm9.237-2.208a2.607 2.607 0 00-1.44.456 2.3 2.3 0 00-.864 1.188V29h-.816v-6.252h.768v1.5c.216-.44.5-.796.852-1.068.36-.272.74-.424 1.14-.456a2.1 2.1 0 01.204-.012c.064 0 .116.004.156.012v.744zm6.48 5.652a3.11 3.11 0 01-1.26-.252 3.271 3.271 0 01-.996-.72c-.28-.304-.5-.652-.66-1.044a3.421 3.421 0 01-.228-1.248c0-.592.132-1.132.396-1.62a3.027 3.027 0 011.104-1.164c.472-.288 1.016-.432 1.632-.432.584 0 1.1.136 1.548.408.448.264.78.624.996 1.08l-.792.252a1.85 1.85 0 00-.744-.744 2.017 2.017 0 00-1.044-.276c-.416 0-.796.108-1.14.324-.344.216-.62.512-.828.888-.2.376-.3.804-.3 1.284 0 .472.104.9.312 1.284.208.384.484.692.828.924.344.224.724.336 1.14.336.272 0 .532-.048.78-.144.256-.096.476-.224.66-.384.192-.168.32-.348.384-.54l.804.24a2.08 2.08 0 01-.564.804c-.256.232-.56.416-.912.552a3.175 3.175 0 01-1.116.192zM55.5 29h-.816v-3.492c0-.704-.124-1.232-.372-1.584-.248-.36-.604-.54-1.068-.54-.304 0-.608.08-.912.24-.296.152-.56.364-.792.636a2.38 2.38 0 00-.48.912V29h-.816v-8.76h.816v3.924a2.856 2.856 0 011.032-1.104 2.65 2.65 0 011.428-.42c.36 0 .664.064.912.192.256.128.46.316.612.564.16.24.276.524.348.852.072.32.108.684.108 1.092V29zm4.62 0v-6.252h.816V29h-.816zm0-7.56v-1.2h.816v1.2h-.816zm8.493 7.26a4.538 4.538 0 00-.3.132 2.704 2.704 0 01-1.115.24 1.67 1.67 0 01-.66-.132c-.2-.088-.36-.22-.48-.396a1.204 1.204 0 01-.18-.672v-4.476h-.864v-.648h.863v-2.112h.816v2.112h1.44v.648h-1.44v4.248c.017.224.097.392.24.504a.848.848 0 00.516.168c.225 0 .428-.036.613-.108.183-.08.295-.136.335-.168l.216.66zm6.495.42a3.08 3.08 0 01-1.248-.252 3.179 3.179 0 01-.996-.708c-.28-.304-.5-.652-.66-1.044a3.455 3.455 0 01-.228-1.26c0-.584.132-1.12.396-1.608a3.118 3.118 0 011.116-1.164 2.963 2.963 0 011.608-.444c.616 0 1.152.148 1.608.444.464.296.828.688 1.092 1.176.264.48.396 1.008.396 1.584v.192a.57.57 0 01-.012.132h-5.352c.04.448.164.848.372 1.2.216.344.492.62.828.828.344.2.716.3 1.116.3.408 0 .792-.104 1.152-.312.368-.208.624-.48.768-.816l.708.192a2.34 2.34 0 01-.588.804c-.264.24-.576.428-.936.564a3.311 3.311 0 01-1.14.192zm-2.304-3.54h4.62a2.555 2.555 0 00-.372-1.2 2.217 2.217 0 00-.828-.804 2.14 2.14 0 00-1.116-.3c-.408 0-.78.1-1.116.3a2.31 2.31 0 00-.828.816c-.208.344-.328.74-.36 1.188zm12.239 3.54a3.11 3.11 0 01-1.26-.252 3.271 3.271 0 01-.996-.72c-.28-.304-.5-.652-.66-1.044a3.421 3.421 0 01-.229-1.248c0-.592.132-1.132.396-1.62a3.027 3.027 0 011.104-1.164c.472-.288 1.016-.432 1.632-.432.585 0 1.1.136 1.549.408.447.264.78.624.995 1.08l-.791.252a1.85 1.85 0 00-.745-.744 2.017 2.017 0 00-1.044-.276c-.415 0-.795.108-1.14.324-.343.216-.62.512-.828.888-.2.376-.3.804-.3 1.284 0 .472.105.9.313 1.284.208.384.484.692.828.924.344.224.724.336 1.14.336.272 0 .531-.048.78-.144.255-.096.475-.224.66-.384.192-.168.32-.348.383-.54l.805.24a2.08 2.08 0 01-.564.804c-.256.232-.56.416-.912.552a3.175 3.175 0 01-1.117.192zm9.754-.42a4.538 4.538 0 00-.3.132 2.704 2.704 0 01-1.117.24c-.232 0-.452-.044-.66-.132-.2-.088-.36-.22-.48-.396a1.204 1.204 0 01-.18-.672v-4.476h-.864v-.648h.865v-2.112h.816v2.112h1.44v.648h-1.44v4.248c.015.224.096.392.24.504a.848.848 0 00.516.168c.224 0 .427-.036.611-.108.184-.08.297-.136.337-.168l.216.66zm3.839-2.28v-3.672h.816v3.528c0 .712.12 1.244.36 1.596.248.352.612.528 1.092.528.32 0 .628-.068.924-.204a2.55 2.55 0 00.804-.6c.232-.264.408-.568.528-.912v-3.936h.816v5.268c0 .112.024.196.072.252.048.048.12.076.216.084V29a2.901 2.901 0 01-.228.012 1.108 1.108 0 01-.156.012.703.703 0 01-.42-.192.6.6 0 01-.18-.408l-.024-.84c-.272.48-.644.856-1.116 1.128a2.937 2.937 0 01-1.512.408c-.656 0-1.152-.228-1.488-.684-.336-.456-.504-1.128-.504-2.016zm13.185-2.952a2.607 2.607 0 00-1.44.456 2.3 2.3 0 00-.864 1.188V29h-.816v-6.252h.768v1.5c.216-.44.5-.796.852-1.068.36-.272.74-.424 1.14-.456a2.1 2.1 0 01.204-.012c.064 0 .116.004.156.012v.744zm6.468 5.652a3.08 3.08 0 01-1.248-.252 3.179 3.179 0 01-.996-.708c-.28-.304-.5-.652-.66-1.044a3.455 3.455 0 01-.228-1.26c0-.584.132-1.12.396-1.608a3.118 3.118 0 011.116-1.164 2.963 2.963 0 011.608-.444c.616 0 1.152.148 1.608.444.464.296.828.688 1.092 1.176.264.48.396 1.008.396 1.584v.192a.57.57 0 01-.012.132h-5.352c.04.448.164.848.372 1.2.216.344.492.62.828.828.344.2.716.3 1.116.3.408 0 .792-.104 1.152-.312.368-.208.624-.48.768-.816l.708.192a2.34 2.34 0 01-.588.804c-.264.24-.576.428-.936.564a3.311 3.311 0 01-1.14.192zm-2.304-3.54h4.62a2.555 2.555 0 00-.372-1.2 2.217 2.217 0 00-.828-.804 2.14 2.14 0 00-1.116-.3c-.408 0-.78.1-1.116.3a2.31 2.31 0 00-.828.816c-.208.344-.328.74-.36 1.188z" fill-opacity=".45"/></g></svg>