<svg width="122" height="30" fill="none" xmlns="http://www.w3.org/2000/svg"><path fill-rule="evenodd" clip-rule="evenodd" d="M10 0H0v10a5 5 0 005 5h10V5a5 5 0 00-5-5zm0 2H2v8a3 3 0 003 3h8V5a3 3 0 00-3-3z" fill="#F88500"/><path d="M27.389 1.964h2.176l1.377 3.995 1.394-3.995h2.159l-2.074 5.491 1.53 3.842 3.417-9.367h2.55L35.09 14h-2.023l-2.125-5.066L28.834 14h-2.023L22 1.93h2.516l3.434 9.367 1.496-3.842-2.057-5.491zm18.452 12.121c-.884 0-1.689-.17-2.414-.51a5.865 5.865 0 01-1.853-1.377 6.74 6.74 0 01-1.19-1.972 6.25 6.25 0 01-.425-2.261c0-.805.147-1.57.442-2.295a6.6 6.6 0 011.24-1.955 5.839 5.839 0 011.87-1.36 5.537 5.537 0 012.38-.51c.873 0 1.667.176 2.38.527a5.713 5.713 0 011.854 1.411c.51.59.906 1.247 1.19 1.972a6.12 6.12 0 01.425 2.244 6.14 6.14 0 01-.442 2.295 6.437 6.437 0 01-1.241 1.955 5.714 5.714 0 01-1.87 1.343 5.542 5.542 0 01-2.346.493zm-3.502-6.12c0 .521.079 1.026.238 1.513.158.487.385.924.68 1.309.306.374.674.674 1.105.901.442.215.94.323 1.496.323.566 0 1.07-.113 1.513-.34a3.41 3.41 0 001.105-.935 4.32 4.32 0 00.663-1.309c.158-.487.238-.975.238-1.462 0-.521-.085-1.02-.255-1.496a3.948 3.948 0 00-.697-1.292 3.055 3.055 0 00-1.105-.901 3.09 3.09 0 00-1.462-.34c-.578 0-1.088.119-1.53.357a3.27 3.27 0 00-1.088.918 4.403 4.403 0 00-.68 1.292 4.918 4.918 0 00-.221 1.462zm16.351 6.12c-.884 0-1.688-.17-2.414-.51a5.864 5.864 0 01-1.853-1.377 6.738 6.738 0 01-1.19-1.972 6.248 6.248 0 01-.425-2.261c0-.805.148-1.57.442-2.295a6.599 6.599 0 011.241-1.955 5.838 5.838 0 011.87-1.36 5.537 5.537 0 012.38-.51c.873 0 1.666.176 2.38.527a5.714 5.714 0 011.853 1.411 6.74 6.74 0 011.19 1.972 6.1 6.1 0 01.425 2.244 6.12 6.12 0 01-.442 2.295 6.439 6.439 0 01-1.24 1.955 5.715 5.715 0 01-1.87 1.343 5.542 5.542 0 01-2.347.493zm-3.502-6.12c0 .521.08 1.026.238 1.513.159.487.386.924.68 1.309a3.56 3.56 0 001.105.901c.442.215.94.323 1.496.323.567 0 1.071-.113 1.513-.34a3.41 3.41 0 001.105-.935 4.31 4.31 0 00.663-1.309 4.7 4.7 0 00.238-1.462c0-.521-.085-1.02-.255-1.496a3.95 3.95 0 00-.697-1.292 3.056 3.056 0 00-1.105-.901 3.091 3.091 0 00-1.462-.34c-.578 0-1.088.119-1.53.357a3.27 3.27 0 00-1.088.918 4.398 4.398 0 00-.68 1.292 4.915 4.915 0 00-.22 1.462zM66.388 14V1.93h4.387c1.314 0 2.414.272 3.298.816a5.052 5.052 0 011.989 2.176c.442.907.663 1.915.663 3.026 0 1.224-.244 2.29-.731 3.196a5.161 5.161 0 01-2.074 2.108c-.884.499-1.933.748-3.145.748h-4.386zm7.974-6.052c0-.782-.142-1.468-.425-2.057a3.196 3.196 0 00-1.224-1.394c-.533-.34-1.179-.51-1.938-.51h-2.04v7.956h2.04c.77 0 1.422-.17 1.955-.51a3.304 3.304 0 001.207-1.428c.283-.612.425-1.298.425-2.057zm12.99-3.961h-3.859V14h-2.329V3.987h-3.859V1.93h10.047v2.057zm9.88 7.956V14H88.85V1.93h8.228v2.057h-5.882v2.907h5.083v1.904h-5.083v3.145h6.035zm.882-4.063c0-.737.13-1.456.39-2.159a6.294 6.294 0 011.174-1.938 5.468 5.468 0 011.87-1.394c.737-.351 1.575-.527 2.516-.527 1.111 0 2.068.244 2.873.731.816.487 1.422 1.122 1.819 1.904l-1.802 1.241c-.204-.453-.47-.81-.799-1.071a2.806 2.806 0 00-1.054-.561 3.795 3.795 0 00-1.105-.17c-.589 0-1.105.119-1.547.357-.431.238-.793.55-1.088.935a4.094 4.094 0 00-.663 1.292 5.177 5.177 0 00-.204 1.428c0 .533.085 1.048.255 1.547.17.487.408.924.714 1.309.317.374.691.674 1.122.901a3.26 3.26 0 001.445.323c.374 0 .754-.062 1.139-.187a3.237 3.237 0 001.071-.595 2.69 2.69 0 00.765-1.054l1.921 1.105c-.238.6-.629 1.11-1.173 1.53a5.722 5.722 0 01-1.802.952 6.465 6.465 0 01-1.989.323 5.284 5.284 0 01-2.363-.527 6.193 6.193 0 01-1.853-1.428 7.23 7.23 0 01-1.207-2.006 6.34 6.34 0 01-.425-2.261zm22.534-5.95V14h-2.329V8.849h-5.474V14h-2.346V1.93h2.346v4.879h5.474V1.93h2.329z" fill="#fff"/><path d="M25.708 20.48h.708l3.54 8.52h-.888l-1.104-2.664h-3.828L23.044 29h-.9l3.564-8.52zm2.064 5.196l-1.716-4.212-1.74 4.212h3.456zm9.237-2.208a2.607 2.607 0 00-1.44.456 2.3 2.3 0 00-.864 1.188V29h-.816v-6.252h.768v1.5c.216-.44.5-.796.852-1.068.36-.272.74-.424 1.14-.456a2.1 2.1 0 01.204-.012c.064 0 .116.004.156.012v.744zm6.48 5.652a3.11 3.11 0 01-1.26-.252 3.271 3.271 0 01-.996-.72c-.28-.304-.5-.652-.66-1.044a3.421 3.421 0 01-.228-1.248c0-.592.132-1.132.396-1.62a3.027 3.027 0 011.104-1.164c.472-.288 1.016-.432 1.632-.432.584 0 1.1.136 1.548.408.448.264.78.624.996 1.08l-.792.252a1.85 1.85 0 00-.744-.744 2.017 2.017 0 00-1.044-.276c-.416 0-.796.108-1.14.324-.344.216-.62.512-.828.888-.2.376-.3.804-.3 1.284 0 .472.104.9.312 1.284.208.384.484.692.828.924.344.224.724.336 1.14.336.272 0 .532-.048.78-.144.256-.096.476-.224.66-.384.192-.168.32-.348.384-.54l.804.24a2.08 2.08 0 01-.564.804c-.256.232-.56.416-.912.552a3.175 3.175 0 01-1.116.192zM55.5 29h-.816v-3.492c0-.704-.124-1.232-.372-1.584-.248-.36-.604-.54-1.068-.54-.304 0-.608.08-.912.24-.296.152-.56.364-.792.636a2.38 2.38 0 00-.48.912V29h-.816v-8.76h.816v3.924a2.856 2.856 0 011.032-1.104 2.65 2.65 0 011.428-.42c.36 0 .664.064.912.192.256.128.46.316.612.564.16.24.276.524.348.852.072.32.108.684.108 1.092V29zm4.62 0v-6.252h.816V29h-.816zm0-7.56v-1.2h.816v1.2h-.816zm8.493 7.26a4.538 4.538 0 00-.3.132 2.704 2.704 0 01-1.115.24 1.67 1.67 0 01-.66-.132c-.2-.088-.36-.22-.48-.396a1.204 1.204 0 01-.18-.672v-4.476h-.864v-.648h.863v-2.112h.816v2.112h1.44v.648h-1.44v4.248c.017.224.097.392.24.504a.848.848 0 00.516.168c.225 0 .428-.036.613-.108.183-.08.295-.136.335-.168l.216.66zm6.495.42a3.08 3.08 0 01-1.248-.252 3.179 3.179 0 01-.996-.708c-.28-.304-.5-.652-.66-1.044a3.455 3.455 0 01-.228-1.26c0-.584.132-1.12.396-1.608a3.118 3.118 0 011.116-1.164 2.963 2.963 0 011.608-.444c.616 0 1.152.148 1.608.444.464.296.828.688 1.092 1.176.264.48.396 1.008.396 1.584v.192a.57.57 0 01-.012.132h-5.352c.04.448.164.848.372 1.2.216.344.492.62.828.828.344.2.716.3 1.116.3.408 0 .792-.104 1.152-.312.368-.208.624-.48.768-.816l.708.192a2.34 2.34 0 01-.588.804c-.264.24-.576.428-.936.564a3.311 3.311 0 01-1.14.192zm-2.304-3.54h4.62a2.555 2.555 0 00-.372-1.2 2.217 2.217 0 00-.828-.804 2.14 2.14 0 00-1.116-.3c-.408 0-.78.1-1.116.3a2.31 2.31 0 00-.828.816c-.208.344-.328.74-.36 1.188zm12.239 3.54a3.11 3.11 0 01-1.26-.252 3.271 3.271 0 01-.996-.72c-.28-.304-.5-.652-.66-1.044a3.421 3.421 0 01-.229-1.248c0-.592.132-1.132.396-1.62a3.027 3.027 0 011.104-1.164c.472-.288 1.016-.432 1.632-.432.585 0 1.1.136 1.549.408.447.264.78.624.995 1.08l-.791.252a1.85 1.85 0 00-.745-.744 2.017 2.017 0 00-1.044-.276c-.415 0-.795.108-1.14.324-.343.216-.62.512-.828.888-.2.376-.3.804-.3 1.284 0 .472.105.9.313 1.284.208.384.484.692.828.924.344.224.724.336 1.14.336.272 0 .531-.048.78-.144.255-.096.475-.224.66-.384.192-.168.32-.348.383-.54l.805.24a2.08 2.08 0 01-.564.804c-.256.232-.56.416-.912.552a3.175 3.175 0 01-1.117.192zm9.754-.42a4.538 4.538 0 00-.3.132 2.704 2.704 0 01-1.117.24c-.232 0-.452-.044-.66-.132-.2-.088-.36-.22-.48-.396a1.204 1.204 0 01-.18-.672v-4.476h-.864v-.648h.865v-2.112h.816v2.112h1.44v.648h-1.44v4.248c.015.224.096.392.24.504a.848.848 0 00.516.168c.224 0 .427-.036.611-.108.184-.08.297-.136.337-.168l.216.66zm3.839-2.28v-3.672h.816v3.528c0 .712.12 1.244.36 1.596.248.352.612.528 1.092.528.32 0 .628-.068.924-.204a2.55 2.55 0 00.804-.6c.232-.264.408-.568.528-.912v-3.936h.816v5.268c0 .112.024.196.072.252.048.048.12.076.216.084V29a2.901 2.901 0 01-.228.012 1.108 1.108 0 01-.156.012.703.703 0 01-.42-.192.6.6 0 01-.18-.408l-.024-.84c-.272.48-.644.856-1.116 1.128a2.937 2.937 0 01-1.512.408c-.656 0-1.152-.228-1.488-.684-.336-.456-.504-1.128-.504-2.016zm13.185-2.952a2.607 2.607 0 00-1.44.456 2.3 2.3 0 00-.864 1.188V29h-.816v-6.252h.768v1.5c.216-.44.5-.796.852-1.068.36-.272.74-.424 1.14-.456a2.1 2.1 0 01.204-.012c.064 0 .116.004.156.012v.744zm6.468 5.652a3.08 3.08 0 01-1.248-.252 3.179 3.179 0 01-.996-.708c-.28-.304-.5-.652-.66-1.044a3.455 3.455 0 01-.228-1.26c0-.584.132-1.12.396-1.608a3.118 3.118 0 011.116-1.164 2.963 2.963 0 011.608-.444c.616 0 1.152.148 1.608.444.464.296.828.688 1.092 1.176.264.48.396 1.008.396 1.584v.192a.57.57 0 01-.012.132h-5.352c.04.448.164.848.372 1.2.216.344.492.62.828.828.344.2.716.3 1.116.3.408 0 .792-.104 1.152-.312.368-.208.624-.48.768-.816l.708.192a2.34 2.34 0 01-.588.804c-.264.24-.576.428-.936.564a3.311 3.311 0 01-1.14.192zm-2.304-3.54h4.62a2.555 2.555 0 00-.372-1.2 2.217 2.217 0 00-.828-.804 2.14 2.14 0 00-1.116-.3c-.408 0-.78.1-1.116.3a2.31 2.31 0 00-.828.816c-.208.344-.328.74-.36 1.188z" fill="#fff" fill-opacity=".45"/></svg>